<?xml version="1.0" standalone="no"?>
<!DOCTYPE svg PUBLIC "-//W3C//DTD SVG 20010904//EN"
 "http://www.w3.org/TR/2001/REC-SVG-20010904/DTD/svg10.dtd">
<svg version="1.0" xmlns="http://www.w3.org/2000/svg"
 width="32.000000pt" height="32.000000pt" viewBox="0 0 32.000000 32.000000"
 preserveAspectRatio="xMidYMid meet">

<g transform="translate(0.000000,32.000000) scale(0.100000,-0.100000)"
fill="#000000" stroke="none">
<path d="M16 312 c-4 -7 -3 -12 3 -12 5 0 17 -33 26 -72 9 -40 20 -90 26 -111
l10 -38 102 3 c81 2 102 6 105 18 2 12 -13 15 -89 15 -65 0 -94 4 -96 13 -4 9
20 12 95 12 97 0 112 5 112 36 0 2 -47 4 -105 4 -87 0 -105 3 -105 15 0 12 18
15 103 15 108 0 124 4 106 27 -9 9 -44 13 -135 13 -113 0 -124 2 -124 18 0 26
-25 58 -34 44z"/>
<path d="M102 28 c2 -13 10 -23 18 -23 8 0 16 10 18 23 3 17 -2 22 -18 22 -16
0 -21 -5 -18 -22z m28 -3 c0 -8 -4 -15 -10 -15 -5 0 -10 7 -10 15 0 8 5 15 10
15 6 0 10 -7 10 -15z"/>
<path d="M214 39 c-3 -6 0 -17 7 -25 18 -17 44 -2 36 20 -7 18 -33 21 -43 5z
m34 -10 c-5 -14 -21 -14 -26 0 -2 6 4 11 13 11 9 0 15 -5 13 -11z"/>
</g>
</svg>
